<svg width="53" height="57" viewBox="0 0 53 57" fill="none" xmlns="http://www.w3.org/2000/svg">
<path fill-rule="evenodd" clip-rule="evenodd" d="M0.25 7.75C0.25 5.76088 1.04018 3.85322 2.4467 2.4467C3.85322 1.04018 5.76088 0.25 7.75 0.25H45.25C47.2391 0.25 49.1468 1.04018 50.5533 2.4467C51.9598 3.85322 52.75 5.76088 52.75 7.75V37.75C52.75 39.7391 51.9598 41.6468 50.5533 43.0533C49.1468 44.4598 47.2391 45.25 45.25 45.25H36.925L37.3862 47.0838L40.4012 50.0987C40.9255 50.6232 41.2826 51.2913 41.4272 52.0186C41.5718 52.746 41.4976 53.4998 41.2138 54.185C40.93 54.8701 40.4495 55.4557 39.833 55.8678C39.2164 56.2798 38.4916 56.4998 37.75 56.5H15.25C14.5084 56.4998 13.7836 56.2798 13.167 55.8678C12.5505 55.4557 12.07 54.8701 11.7862 54.185C11.5024 53.4998 11.4282 52.746 11.5728 52.0186C11.7174 51.2913 12.0745 50.6232 12.5988 50.0987L15.6138 47.0838L16.075 45.25H7.75C5.76088 45.25 3.85322 44.4598 2.4467 43.0533C1.04018 41.6468 0.25 39.7391 0.25 37.75V7.75ZM21.8912 34H7.75V7.75H45.25V34H21.8912Z" fill="white"/>
</svg>
