<svg width="70" height="70" viewBox="0 0 70 70" fill="none" xmlns="http://www.w3.org/2000/svg">
<path d="M68.6717 21.8345L36.6795 0.506291C35.5876 -0.165684 34.4222 -0.171836 33.3202 0.506291L1.32808 21.8345C0.507772 22.3812 0 23.358 0 24.3344V45.6625C0 46.639 0.507773 47.6156 1.32822 48.1625L33.3203 69.4937C34.4123 70.1657 35.5777 70.1718 36.6797 69.4937L68.6718 48.1625C69.4921 47.6158 70 46.639 70 45.6625V24.3344C69.9999 23.358 69.4921 22.3812 68.6717 21.8345ZM38.0077 8.6311L61.5624 24.3344L51.0546 31.3657L38.0077 22.6547V8.6311ZM31.9921 8.6311V22.6547L18.9452 31.3657L8.43745 24.3344L31.9921 8.6311ZM6.01561 29.9594L13.5547 34.9985L6.01561 40.0376V29.9594ZM31.9921 61.3659L8.43745 45.6626L18.9452 38.6313L31.9921 47.3423V61.3659ZM34.9999 42.1079L24.3749 34.9985L34.9999 27.8891L45.625 34.9985L34.9999 42.1079ZM38.0077 61.3659V47.3423L51.0546 38.6313L61.5624 45.6626L38.0077 61.3659ZM63.9843 40.0376L56.4452 34.9985L63.9843 29.9594V40.0376Z" fill="white"/>
</svg>
