<svg width="60" height="53" viewBox="0 0 60 53" fill="none" xmlns="http://www.w3.org/2000/svg">
<path d="M56.4961 0H3.36328C0.679688 0 0 0.697991 0 3.41897V49.581C0 52.3375 0.679688 53 3.36328 53H56.4961C59.3555 53 60 52.3848 60 49.4864V3.57277C60 0.6625 59.3672 0 56.4961 0ZM20.9062 22.2766C17.6836 19.8868 12.457 21.2473 11.0391 25.0449C10.5352 26.358 9.94922 26.1688 8.98828 26.0268C7.85156 25.8493 6.97266 25.6482 6.35156 25.3761C2.97656 24.0275 7.35938 18.8339 9.26953 17.7692C14.0859 15.2375 19.043 15.1429 23.9531 17.2013C28.7461 19.1888 27.9961 24.2049 27.9961 32.4033C28.3125 35.4556 27.4922 39.3004 29.0859 42.9087C29.3086 43.4292 29.1328 43.8433 28.7695 44.1746C27.7852 44.9672 24.1641 44.4348 23.3086 43.2991C23.0859 43.0388 23.0977 42.8732 22.8516 42.5656C22.4297 42.1042 21.9961 42.3054 21.457 42.6839C14.7305 46.9902 5.01562 45.2156 4.23047 37.5614C3.86719 34.0951 5.68359 30.8063 8.87109 29.1618C13.3477 26.8549 22.0195 27.7659 22.2305 25.5063C22.3594 24.2996 22.0078 23.1283 20.9062 22.2766ZM54.5039 48.54C54.5039 50.3263 53.2031 49.7112 52.418 49.7112H6.14062C5.27344 49.7112 4.00781 50.279 4.05469 48.4453C4.10156 46.8009 5.28516 47.3688 6.05859 47.3688C21.5625 47.3214 37.0547 47.3214 52.5586 47.3688C53.3555 47.3688 54.5039 46.8482 54.5039 48.54ZM54.9492 8.25759V42.6839C54.9492 43.3583 54.8672 44.3284 54 44.3284C52.5469 44.281 50.7773 45.1683 49.7695 43.6659C49.0898 42.6366 48.8555 43.1926 48.3164 43.5239C42.0586 47.0375 33.3047 44.3638 31.3945 33.4444C30.6797 29.4931 31.3125 25.5063 33.2344 21.6141C34.6172 18.7866 39.9023 12.6112 49.1836 18.0058V9.60625C49.1836 6.5067 49.1719 6.5067 52.2305 6.5067C52.5938 6.5067 53.0039 6.55402 53.3672 6.5067C54.5508 6.41205 54.9609 7.02723 54.9609 8.19844C54.9492 8.2221 54.9492 8.23393 54.9492 8.25759ZM48.9141 35.7395C46.6289 41.3708 40.3711 40.8621 38.3672 36.3547C36.5977 32.4152 36.5508 28.2864 38.4141 24.3469C40.3242 20.3127 45.4102 20.1234 47.9648 23.779C50.3789 27.1862 49.7109 33.7875 48.9141 35.7395ZM14.3672 39.9156C13.4883 39.7618 10.5 39.5252 10.418 36.6268C10.3711 34.9824 11.332 33.9058 12.7383 33.5746C15.5977 32.8766 18.5156 32.4034 21.375 31.8355C22.418 31.5989 22.2422 32.356 22.2891 32.9594C22.4531 36.8634 19.2305 39.9629 14.3672 39.9156Z" fill="white"/>
</svg>
