<svg width="58" height="58" viewBox="0 0 58 58" fill="none" xmlns="http://www.w3.org/2000/svg">
<path d="M58 8.28573V13.4643C58 18.0279 45.0105 21.75 29 21.75C12.9895 21.75 0 18.0279 0 13.4643V8.28573C0 3.72208 12.9895 0 29 0C45.0105 0 58 3.72208 58 8.28573ZM58 19.9375V31.5893C58 36.1529 45.0105 39.875 29 39.875C12.9895 39.875 0 36.1529 0 31.5893V19.9375C6.23047 23.692 17.6341 25.4398 29 25.4398C40.3659 25.4398 51.7694 23.692 58 19.9375ZM58 38.0625V49.7143C58 54.2779 45.0105 58 29 58C12.9895 58 0 54.2779 0 49.7143V38.0625C6.23047 41.817 17.6341 43.5648 29 43.5648C40.3659 43.5648 51.7694 41.817 58 38.0625Z" fill="white"/>
</svg>
