<svg width="161" height="38" viewBox="0 0 161 38" fill="none" xmlns="http://www.w3.org/2000/svg">
<g clip-path="url(#clip0_2_62)" filter="url(#filter0_d_2_62)">
<path d="M81.5699 26.6515C81.5699 27.1795 81.5699 27.2995 81.9259 27.6235L83.9197 29.5915V29.6755H75.0784V25.8955C74.1885 28.3868 71.8351 30.0342 69.2158 29.9995C64.6705 29.9995 61.3713 26.3995 61.3713 19.7756C61.3713 13.5718 64.9316 9.43183 69.9278 9.43183C72.1425 9.29086 74.2034 10.5806 75.0665 12.6478V4.30792C75.1322 3.92172 74.9758 3.53122 74.663 3.29994L72.7642 1.45197V1.36798L81.5699 0.323994V26.6515ZM75.0784 25.4515V13.0078C74.4376 12.203 73.4653 11.7425 72.4437 11.7598C70.2957 11.7598 68.2189 13.7278 68.2189 19.5716C68.2189 25.0435 70.0109 26.9755 72.242 26.9755C73.3732 26.9521 74.4261 26.3864 75.0784 25.4515ZM87.4325 29.6755V12.8758C87.4891 12.5006 87.3553 12.1218 87.0765 11.8678L85.1183 9.82782V9.74382H93.9597V26.7835C93.9597 27.3115 93.9597 27.4315 94.3157 27.7555L96.262 29.6035V29.6875L87.4325 29.6755ZM87.1121 3.59994C87.1121 1.61175 88.7061 0 90.6724 0C92.6386 0 94.2326 1.61175 94.2326 3.59994C94.2326 5.58812 92.6386 7.19987 90.6724 7.19987C88.7061 7.19987 87.1121 5.58812 87.1121 3.59994ZM117.814 26.6155C117.814 27.1435 117.814 27.2995 118.17 27.6235L120.163 29.5915V29.6755H111.274V25.3675C110.465 28.0914 107.999 29.9676 105.186 29.9995C101.246 29.9995 99.1339 27.0955 99.1339 21.5996C99.1339 18.9477 99.1339 16.0437 99.217 12.7798C99.2821 12.4144 99.1458 12.0421 98.861 11.8078L96.9028 9.82782V9.74382H105.673C105.673 9.86382 105.673 20.1716 105.673 20.6996C105.673 24.2996 106.195 26.6995 108.426 26.6995C109.624 26.6238 110.704 25.9425 111.298 24.8876V12.8878C111.355 12.5126 111.221 12.1338 110.942 11.8798L108.972 9.82782V9.74382H117.814V26.6155ZM147.91 29.6755C147.91 29.0275 148.028 20.7716 148.028 18.8757C148.028 15.2757 147.471 12.7918 144.967 12.7918C143.707 12.8311 142.54 13.4722 141.822 14.5197C142.073 15.6416 142.192 16.7895 142.178 17.9397C142.178 20.4356 142.095 23.6156 142.059 26.7955C141.994 27.1609 142.13 27.5332 142.415 27.7675L144.409 29.6155V29.6995H135.484C135.484 29.0995 135.603 20.7956 135.603 18.8997C135.603 15.2397 135.045 12.8158 132.577 12.8158C131.36 12.8599 130.25 13.5298 129.634 14.5917V26.8315C129.634 27.3595 129.634 27.4795 129.99 27.8035L131.936 29.6515V29.7355H123.106V12.9358C123.163 12.5606 123.029 12.1818 122.75 11.9278L120.792 9.82782V9.74382H129.634V14.0157C130.453 11.1953 133.066 9.30056 135.971 9.41983C138.914 9.41983 140.908 11.0758 141.75 14.2197C142.686 11.3202 145.38 9.37452 148.396 9.41983C152.336 9.41983 154.567 12.3598 154.567 17.9157C154.567 20.5676 154.484 23.5916 154.449 26.7715C154.38 27.1479 154.538 27.5298 154.852 27.7435L156.799 29.5915V29.6755H147.91ZM36.841 27.0595L39.4637 29.5915V29.6755H26.1602V29.5915L28.8304 27.0595C29.1152 26.8252 29.2515 26.4529 29.1864 26.0875V9.89982C29.1864 9.21583 29.1864 8.29185 29.3051 7.49987L20.3332 29.9995H20.2264L10.9341 9.29983C10.7323 8.78384 10.673 8.74784 10.5424 8.39985V21.9716C10.4312 22.8799 10.5838 23.8014 10.9815 24.6236L14.7198 29.5915V29.6755H4.79852V29.5915L8.53681 24.6116C8.93165 23.7927 9.08413 22.876 8.97591 21.9716V6.97187C9.0367 6.23332 8.81592 5.49922 8.3588 4.91991L5.71233 1.45197V1.36798H15.2064L23.1577 18.8997L30.1595 1.36798H39.4519V1.45197L36.841 4.39192C36.5281 4.6232 36.3718 5.0137 36.4375 5.3999V26.0875C36.3683 26.4639 36.5269 26.8458 36.841 27.0595ZM47.2489 18.9477V19.0317C47.2489 24.1676 49.8716 26.2315 52.9453 26.2315C55.5119 26.3201 57.8872 24.8649 58.9978 22.5236H59.0808C58.0128 27.5995 54.9035 29.9995 50.2514 29.9995C45.2314 29.9995 40.4962 26.9395 40.4962 19.8476C40.4962 12.3958 45.2432 9.41983 50.4887 9.41983C54.7136 9.41983 59.2114 11.4358 59.2114 17.9157C59.2114 18.0357 59.2114 18.4677 59.2114 18.9477H47.2489ZM47.2489 17.9157H53.0996C53.0996 17.3877 53.0996 17.0277 53.0996 16.8717C53.0996 11.5918 52.0196 10.1878 50.3938 10.1878C48.4238 10.1878 47.2251 12.2878 47.2251 17.9157H47.2489Z" fill="white" fill-opacity="0.5"/>
</g>
<defs>
<filter id="filter0_d_2_62" x="0.798523" y="0" width="160" height="38" filterUnits="userSpaceOnUse" color-interpolation-filters="sRGB">
<feFlood flood-opacity="0" result="BackgroundImageFix"/>
<feColorMatrix in="SourceAlpha" type="matrix" values="0 0 0 0 0 0 0 0 0 0 0 0 0 0 0 0 0 0 127 0" result="hardAlpha"/>
<feOffset dy="4"/>
<feGaussianBlur stdDeviation="2"/>
<feComposite in2="hardAlpha" operator="out"/>
<feColorMatrix type="matrix" values="0 0 0 0 0 0 0 0 0 0 0 0 0 0 0 0 0 0 0.25 0"/>
<feBlend mode="normal" in2="BackgroundImageFix" result="effect1_dropShadow_2_62"/>
<feBlend mode="normal" in="SourceGraphic" in2="effect1_dropShadow_2_62" result="shape"/>
</filter>
<clipPath id="clip0_2_62">
<rect width="152" height="30" fill="white" transform="translate(4.79852)"/>
</clipPath>
</defs>
</svg>
